<?xml version="1.0" encoding="UTF-8" standalone="no"?><!DOCTYPE svg PUBLIC "-//W3C//DTD SVG 1.1//EN" "http://www.w3.org/Graphics/SVG/1.1/DTD/svg11.dtd"><svg width="100%" height="100%" viewBox="0 0 1080 1080" version="1.1" xmlns="http://www.w3.org/2000/svg" xmlns:xlink="http://www.w3.org/1999/xlink" xml:space="preserve" xmlns:serif="http://www.serif.com/" style="fill-rule:evenodd;clip-rule:evenodd;stroke-linejoin:round;stroke-miterlimit:2;"><g id="Rectangle-noir" serif:id="Rectangle noir"><rect x="506.647" y="455.098" width="33.572" height="33.572" style="fill:#fff;"/><rect x="506.647" y="511.444" width="33.572" height="33.572" style="fill:#fff;"/><rect x="564.154" y="455.098" width="33.572" height="33.572" style="fill:#fff;"/><rect x="564.154" y="511.444" width="33.572" height="33.572" style="fill:#fff;"/></g><path id="Ombre-Toit" serif:id="Ombre Toit" d="M552.113,364.658l-166.232,175.342l165.887,-197.339l-0.012,-0.85l0.366,0.432l0.497,-0.588l-0.016,1.156l151.755,197.189l-152.244,-175.342Z" style="fill:#fff;"/><path id="Contour-logo" serif:id="Contour logo" d="M330.719,574.713l-107.166,0.61c-3.636,-19.666 -5.537,-39.938 -5.537,-60.65c0,-183.236 148.764,-332 332,-332c183.236,0 332,148.764 332,332c0,19.169 -1.628,37.962 -4.754,56.246l-45.643,-49.508c0.053,-2.239 0.079,-4.485 0.079,-6.737c0,-155.465 -126.218,-281.683 -281.683,-281.683c-155.465,0 -281.683,126.218 -281.683,281.683c0,7.321 0.28,14.577 0.83,21.759l42.685,0.194l20.798,-31.729l18.824,31.374l1.569,-135.691l-25.099,14.118l26.668,-36.864l39.217,12.549l0.784,37.648l160.79,-179.614l399.229,517.665l-49.565,1.109l-351.706,-461.057l-222.637,268.578Zm497.153,121.64c-59.328,90.498 -161.661,150.32 -277.857,150.32c-135.667,0 -252.437,-81.55 -303.922,-198.262l55.996,0c47.645,88.069 140.848,147.945 247.926,147.945c103.134,0 193.397,-55.547 242.478,-138.33l35.379,38.327Z" style="fill:#edab31;"/><clipPath id="_clip1"><path d="M330.719,574.713l-107.166,0.61c-3.636,-19.666 -5.537,-39.938 -5.537,-60.65c0,-183.236 148.764,-332 332,-332c183.236,0 332,148.764 332,332c0,19.169 -1.628,37.962 -4.754,56.246l-45.643,-49.508c0.053,-2.239 0.079,-4.485 0.079,-6.737c0,-155.465 -126.218,-281.683 -281.683,-281.683c-155.465,0 -281.683,126.218 -281.683,281.683c0,7.321 0.28,14.577 0.83,21.759l42.685,0.194l20.798,-31.729l18.824,31.374l1.569,-135.691l-25.099,14.118l26.668,-36.864l39.217,12.549l0.784,37.648l160.79,-179.614l399.229,517.665l-49.565,1.109l-351.706,-461.057l-222.637,268.578Zm497.153,121.64c-59.328,90.498 -161.661,150.32 -277.857,150.32c-135.667,0 -252.437,-81.55 -303.922,-198.262l55.996,0c47.645,88.069 140.848,147.945 247.926,147.945c103.134,0 193.397,-55.547 242.478,-138.33l35.379,38.327Z"/></clipPath><g clip-path="url(#_clip1)"><path d="M827.872,696.353c-59.328,90.498 -161.661,150.32 -277.857,150.32c-135.667,0 -252.437,-81.55 -303.922,-198.262l55.996,0c47.645,88.069 140.848,147.945 247.926,147.945c103.134,0 193.397,-55.547 242.478,-138.33l35.379,38.327Z" style="fill:#fff;"/></g><g transform="matrix(125,0,0,125,636.009842,752.884537)"></g><text x="453.759px" y="752.885px" style="font-family:'Rockwell', serif;font-size:125px;fill:#edab31;">BM</text><g transform="matrix(1,0,0,1,-2.571756,5.928817)"><g transform="matrix(0.923232,0.384243,-0.384243,0.923232,340.678766,-106.200924)"><text x="436.12px" y="799.49px" style="font-family:'Montserrat-Regular', 'Montserrat';font-size:33.333px;fill:#edab31;">B</text></g><g transform="matrix(0.951334,0.308163,-0.308163,0.951334,271.711388,-102.164752)"><text x="459.317px" y="809.177px" style="font-family:'Montserrat-Regular', 'Montserrat';font-size:33.333px;fill:#9d9ca1;">E</text></g><g transform="matrix(0.972852,0.231429,-0.231429,0.972852,201.915492,-89.0491)"><text x="480.515px" y="816.107px" style="font-family:'Montserrat-Regular', 'Montserrat';font-size:33.333px;fill:#9d9ca1;">L</text></g><g transform="matrix(0.987458,0.15788,-0.15788,0.987458,135.850511,-68.579102)"><text x="499.576px" y="820.781px" style="font-family:'Montserrat-Regular', 'Montserrat';font-size:33.333px;fill:#9d9ca1;">L</text></g><g transform="matrix(0.994276,0.106843,-0.106843,0.994276,90.989303,-50.736023)"><text x="518.999px" y="823.808px" style="font-family:'Montserrat-Regular', 'Montserrat';font-size:33.333px;fill:#9d9ca1;">I</text></g><g transform="matrix(0.999967,-0.008066,0.008066,0.999967,-6.644143,4.363966)"><text x="537.709px" y="825.903px" style="font-family:'Montserrat-Regular', 'Montserrat';font-size:33.333px;fill:#edab31;">M</text></g><g transform="matrix(0.994921,-0.100655,0.100655,0.994921,-80.195675,61.520659)"><text x="569.552px" y="825.473px" style="font-family:'Montserrat-Regular', 'Montserrat';font-size:33.333px;fill:#9d9ca1;">A</text></g><g transform="matrix(0.98213,-0.188202,0.188202,0.98213,-144.31326,126.38141)"><text x="593.364px" y="823.14px" style="font-family:'Montserrat-Regular', 'Montserrat';font-size:33.333px;fill:#9d9ca1;">N</text></g><g transform="matrix(0.959886,-0.280391,0.280391,0.959886,-204.491327,206.663168)"><text x="620.026px" y="818.013px" style="font-family:'Montserrat-Regular', 'Montserrat';font-size:33.333px;fill:#9d9ca1;">U</text></g><g transform="matrix(0.930924,-0.365214,0.365214,0.930924,-251.450705,291.678654)"><text x="645.342px" y="810.562px" style="font-family:'Montserrat-Regular', 'Montserrat';font-size:33.333px;fill:#9d9ca1;">E</text></g><g transform="matrix(0.900277,-0.435317,0.435317,0.900277,-282.89013,370.007626)"><text x="666.147px" y="802.45px" style="font-family:'Montserrat-Regular', 'Montserrat';font-size:33.333px;fill:#9d9ca1;">L</text></g></g><g transform="matrix(83.333333,0,0,83.333333,700.721834,640.4875)"></g><text x="218.015px" y="640.487px" style="font-family:'Rockwell', serif;font-size:83.333px;fill:#fff;">ENTREPRISE</text><path id="Couvreur" d="M729.405,473.272l-13.896,-16.422l4.211,-0.421c0,0 6.789,-15.941 10.948,-19.581c1.684,-1.474 -0,-23.581 4.843,-24.002c6.506,-0.566 -10.948,-1.053 -10.948,-1.053c0,0 -7.159,2.316 -8.632,8.001c-1.474,5.685 -1.895,5.685 -1.895,5.685c0,0 -6.724,15.117 -9.678,15.349c-2.954,0.232 -15.376,-18.296 -15.376,-18.296l8.422,1.263l10.317,-22.949c0,0 1.684,-4.843 6.316,-4.843l10.948,0c0,0 -16.948,-17.304 -20.627,-18.528c-3.796,-1.263 -5.902,-1.474 -9.271,1.684c-3.369,3.158 -19.221,13.998 -28.423,10.317c-3.158,-1.263 -15.159,-14.949 -15.159,-14.949c0,0 -1.474,-5.685 2.105,-2.316c3.579,3.369 5.086,9.97 9.474,8.001c0.779,-0.35 -2.756,-6.111 -0.561,-6.752c4.912,-1.435 -2.704,-7.065 -2.704,-7.065c0,0 -0.773,-0.883 -1.38,-0.055c-0.607,0.828 -1.435,2.76 -2.042,3.256c-0.607,0.497 -1.49,0.607 -2.594,-0.662c-1.104,-1.269 -0.773,-2.484 0.386,-3.974c0.522,-0.671 2.373,-4.464 4.796,-5.639c2.955,-1.434 6.519,-0.211 6.519,-0.211c0,0 1.601,2.428 -0.718,2.539c-2.318,0.11 -3.943,0.151 -3.974,1.049c-0.11,3.256 10.763,12.198 10.763,12.198c0,0 4.25,3.201 10.045,-0.442c5.795,-3.643 14.35,-12.363 14.35,-12.363c0,0 0.166,-2.208 -1.932,-2.208c-2.097,0 -3.643,-0.773 -4.36,-2.925c-0.718,-2.153 -1.049,-2.87 -2.153,-2.649c-1.104,0.221 -2.097,-0.497 -2.097,-0.497c0,0 2.373,-2.153 2.539,-2.98c0.166,-0.828 0.331,-3.256 -0.607,-3.974c-0.938,-0.718 -7.727,-0.662 -7.727,-0.662l-0.221,-1.049l1.545,-0.166c0,0 2.76,-0.773 3.367,-2.208c0.607,-1.435 0.756,-13.357 15.84,-12.998c3.494,0.083 7.048,3.765 8.308,8.105c0.268,0.922 1.847,0.395 1.847,0.395l0.156,1.896l-0.647,0.129c0,0 -1.607,-0.229 -1.993,1.357c-0.386,1.586 0.331,5.781 0.331,5.781l11.394,3.887c0,0 36.318,22.713 42.368,31.355c1.886,2.695 1.708,3.884 1.708,3.884l-1.678,0.309l-0.044,1.81c0,0 5.696,-0.221 5.961,1.148c0.141,0.728 -0.137,6.099 -3.381,12.548c-2.856,5.678 -8.438,12.095 -12.099,18.269c-1.355,2.284 -1.897,4.055 -2.846,7.849c-0.949,3.795 -1.552,7.33 -3.363,9.486c-1.811,2.156 -1.466,2.544 -1.466,5.304c0,2.76 -0.259,2.76 -0.259,2.76c0,0 -9.141,9.573 -10.952,15.092c-1.811,5.519 -2.089,11.938 -4.106,12.135Z" style="fill:#fff;"/></svg>